<mxfile host="app.diagrams.net" modified="2024-01-09T20:11:01.951Z" agent="Mozilla/5.0 (Windows NT 10.0; Win64; x64) AppleWebKit/537.36 (KHTML, like Gecko) Chrome/120.0.0.0 Safari/537.36" etag="Fi0Tk7fZtVQGwDzixqmu" version="22.1.17" type="github">
  <diagram name="Page-1" id="822b0af5-4adb-64df-f703-e8dfc1f81529">
    <mxGraphModel dx="1149" dy="825" grid="1" gridSize="10" guides="1" tooltips="1" connect="1" arrows="1" fold="1" page="1" pageScale="1" pageWidth="1100" pageHeight="850" background="none" math="0" shadow="0">
      <root>
        <mxCell id="0" />
        <mxCell id="1" parent="0" />
        <mxCell id="b_11IC9qF9NP8ymyOty5-10" value="" style="rounded=1;whiteSpace=wrap;html=1;" vertex="1" parent="1">
          <mxGeometry x="290" y="100" width="370" height="240" as="geometry" />
        </mxCell>
        <mxCell id="b_11IC9qF9NP8ymyOty5-5" value="" style="ellipse;shape=cloud;whiteSpace=wrap;html=1;" vertex="1" parent="1">
          <mxGeometry x="80" y="390" width="990" height="420" as="geometry" />
        </mxCell>
        <mxCell id="b_11IC9qF9NP8ymyOty5-1" value="User1" style="image;html=1;labelBackgroundColor=#ffffff;image=img/lib/clip_art/computers/Netbook_128x128.png;rounded=1;shadow=0;comic=0;strokeColor=#000000;strokeWidth=2;fillColor=#FFFFFF;fontSize=22;fontColor=#000000;labelPosition=right;verticalLabelPosition=bottom;align=left;verticalAlign=top;" vertex="1" parent="1">
          <mxGeometry x="310" y="550" width="80" height="80" as="geometry" />
        </mxCell>
        <mxCell id="b_11IC9qF9NP8ymyOty5-2" value="&lt;font style=&quot;font-size: 22px;&quot;&gt;HTTPS_Server&lt;/font&gt;" style="image;html=1;image=img/lib/clip_art/computers/Server_Rack_128x128.png" vertex="1" parent="1">
          <mxGeometry x="350" y="180" width="80" height="80" as="geometry" />
        </mxCell>
        <mxCell id="b_11IC9qF9NP8ymyOty5-6" value="&lt;span style=&quot;font-family: Helvetica; font-style: normal; font-variant-ligatures: normal; font-variant-caps: normal; font-weight: 400; letter-spacing: normal; orphans: 2; text-align: center; text-indent: 0px; text-transform: none; widows: 2; word-spacing: 0px; -webkit-text-stroke-width: 0px; background-color: rgb(255, 255, 255); text-decoration-thickness: initial; text-decoration-style: initial; text-decoration-color: initial; float: none; display: inline !important;&quot;&gt;&lt;font style=&quot;font-size: 27px;&quot; color=&quot;#241cff&quot;&gt;Local area&lt;/font&gt;&lt;/span&gt;" style="text;whiteSpace=wrap;html=1;" vertex="1" parent="1">
          <mxGeometry x="550" y="740" width="180" height="50" as="geometry" />
        </mxCell>
        <mxCell id="b_11IC9qF9NP8ymyOty5-12" value="" style="rounded=1;whiteSpace=wrap;html=1;" vertex="1" parent="1">
          <mxGeometry x="480" y="520" width="320" height="160" as="geometry" />
        </mxCell>
        <mxCell id="b_11IC9qF9NP8ymyOty5-21" style="edgeStyle=orthogonalEdgeStyle;rounded=0;orthogonalLoop=1;jettySize=auto;html=1;exitX=0;exitY=0.5;exitDx=0;exitDy=0;exitPerimeter=0;strokeWidth=3;" edge="1" parent="1" source="b_11IC9qF9NP8ymyOty5-7">
          <mxGeometry relative="1" as="geometry">
            <mxPoint x="479.9999999999998" y="155" as="targetPoint" />
          </mxGeometry>
        </mxCell>
        <mxCell id="b_11IC9qF9NP8ymyOty5-7" value="&lt;font style=&quot;font-size: 24px;&quot;&gt;Kernel&lt;/font&gt;" style="shape=note;whiteSpace=wrap;html=1;backgroundOutline=1;darkOpacity=0.05;" vertex="1" parent="1">
          <mxGeometry x="520" y="110" width="80" height="90" as="geometry" />
        </mxCell>
        <mxCell id="b_11IC9qF9NP8ymyOty5-20" style="edgeStyle=orthogonalEdgeStyle;rounded=0;orthogonalLoop=1;jettySize=auto;html=1;strokeWidth=3;" edge="1" parent="1" source="b_11IC9qF9NP8ymyOty5-8" target="b_11IC9qF9NP8ymyOty5-1">
          <mxGeometry relative="1" as="geometry">
            <Array as="points">
              <mxPoint x="480" y="275" />
              <mxPoint x="480" y="60" />
              <mxPoint x="110" y="60" />
              <mxPoint x="110" y="650" />
              <mxPoint x="350" y="650" />
            </Array>
          </mxGeometry>
        </mxCell>
        <mxCell id="b_11IC9qF9NP8ymyOty5-8" value="&lt;font style=&quot;font-size: 24px;&quot;&gt;initrd&lt;/font&gt;" style="shape=note;whiteSpace=wrap;html=1;backgroundOutline=1;darkOpacity=0.05;" vertex="1" parent="1">
          <mxGeometry x="520" y="230" width="80" height="90" as="geometry" />
        </mxCell>
        <mxCell id="b_11IC9qF9NP8ymyOty5-15" style="edgeStyle=orthogonalEdgeStyle;rounded=0;orthogonalLoop=1;jettySize=auto;html=1;exitX=0;exitY=0;exitDx=50;exitDy=0;exitPerimeter=0;entryX=0.5;entryY=0;entryDx=0;entryDy=0;strokeWidth=3;" edge="1" parent="1" source="b_11IC9qF9NP8ymyOty5-11" target="b_11IC9qF9NP8ymyOty5-1">
          <mxGeometry relative="1" as="geometry">
            <Array as="points">
              <mxPoint x="710" y="490" />
              <mxPoint x="350" y="490" />
            </Array>
          </mxGeometry>
        </mxCell>
        <mxCell id="b_11IC9qF9NP8ymyOty5-11" value="&lt;font style=&quot;font-size: 24px;&quot;&gt;ipxe.iso&lt;br&gt;cert&lt;br&gt;script&lt;br&gt;&lt;/font&gt;" style="shape=note;whiteSpace=wrap;html=1;backgroundOutline=1;darkOpacity=0.05;" vertex="1" parent="1">
          <mxGeometry x="660" y="540" width="130" height="115" as="geometry" />
        </mxCell>
        <mxCell id="b_11IC9qF9NP8ymyOty5-4" value="&lt;font style=&quot;font-size: 22px;&quot;&gt;DHCP_Server&lt;br&gt;&lt;/font&gt;" style="image;html=1;image=img/lib/clip_art/computers/Server_Rack_128x128.png" vertex="1" parent="1">
          <mxGeometry x="535" y="550" width="80" height="80" as="geometry" />
        </mxCell>
        <mxCell id="b_11IC9qF9NP8ymyOty5-13" style="edgeStyle=orthogonalEdgeStyle;rounded=0;orthogonalLoop=1;jettySize=auto;html=1;strokeWidth=3;" edge="1" parent="1" source="b_11IC9qF9NP8ymyOty5-1" target="b_11IC9qF9NP8ymyOty5-4">
          <mxGeometry relative="1" as="geometry" />
        </mxCell>
        <mxCell id="b_11IC9qF9NP8ymyOty5-16" value="&lt;div style=&quot;text-align: center;&quot;&gt;&lt;span style=&quot;font-size: 22px; background-color: rgb(255, 255, 255);&quot;&gt;Request&lt;/span&gt;&lt;/div&gt;" style="text;whiteSpace=wrap;html=1;" vertex="1" parent="1">
          <mxGeometry x="400" y="550" width="80" height="40" as="geometry" />
        </mxCell>
        <mxCell id="b_11IC9qF9NP8ymyOty5-17" value="&lt;div style=&quot;text-align: center;&quot;&gt;&lt;span style=&quot;font-size: 22px; background-color: rgb(255, 255, 255);&quot;&gt;Response&lt;/span&gt;&lt;/div&gt;" style="text;whiteSpace=wrap;html=1;" vertex="1" parent="1">
          <mxGeometry x="470" y="450" width="80" height="40" as="geometry" />
        </mxCell>
        <mxCell id="b_11IC9qF9NP8ymyOty5-18" style="edgeStyle=orthogonalEdgeStyle;rounded=0;orthogonalLoop=1;jettySize=auto;html=1;entryX=0.027;entryY=0.599;entryDx=0;entryDy=0;entryPerimeter=0;strokeWidth=3;" edge="1" parent="1" source="b_11IC9qF9NP8ymyOty5-1" target="b_11IC9qF9NP8ymyOty5-2">
          <mxGeometry relative="1" as="geometry">
            <Array as="points">
              <mxPoint x="240" y="590" />
              <mxPoint x="240" y="228" />
            </Array>
          </mxGeometry>
        </mxCell>
        <mxCell id="b_11IC9qF9NP8ymyOty5-19" value="&lt;div style=&quot;text-align: center;&quot;&gt;&lt;span style=&quot;font-size: 22px; background-color: rgb(255, 255, 255);&quot;&gt;Request for files to boot system&lt;/span&gt;&lt;/div&gt;" style="text;whiteSpace=wrap;html=1;rotation=-90;" vertex="1" parent="1">
          <mxGeometry x="20" y="340" width="405" height="40" as="geometry" />
        </mxCell>
        <mxCell id="b_11IC9qF9NP8ymyOty5-22" value="&lt;div style=&quot;text-align: center;&quot;&gt;&lt;span style=&quot;font-size: 22px; background-color: rgb(255, 255, 255);&quot;&gt;Sending files to boot system&lt;/span&gt;&lt;/div&gt;" style="text;whiteSpace=wrap;html=1;rotation=-90;" vertex="1" parent="1">
          <mxGeometry x="-152.5" y="297.5" width="470" height="40" as="geometry" />
        </mxCell>
        <mxCell id="b_11IC9qF9NP8ymyOty5-23" value="&lt;span style=&quot;font-family: Helvetica; font-style: normal; font-variant-ligatures: normal; font-variant-caps: normal; letter-spacing: normal; orphans: 2; text-align: center; text-indent: 0px; text-transform: none; widows: 2; word-spacing: 0px; -webkit-text-stroke-width: 0px; background-color: rgb(255, 255, 255); text-decoration-thickness: initial; text-decoration-style: initial; text-decoration-color: initial; float: none; display: inline !important;&quot;&gt;&lt;b style=&quot;&quot;&gt;&lt;font style=&quot;font-size: 30px;&quot;&gt;1&lt;/font&gt;&lt;/b&gt;&lt;/span&gt;" style="text;whiteSpace=wrap;html=1;fontColor=#FF3333;" vertex="1" parent="1">
          <mxGeometry x="380" y="545" width="30" height="50" as="geometry" />
        </mxCell>
        <mxCell id="b_11IC9qF9NP8ymyOty5-24" value="&lt;span style=&quot;font-family: Helvetica; font-style: normal; font-variant-ligatures: normal; font-variant-caps: normal; letter-spacing: normal; orphans: 2; text-align: center; text-indent: 0px; text-transform: none; widows: 2; word-spacing: 0px; -webkit-text-stroke-width: 0px; background-color: rgb(255, 255, 255); text-decoration-thickness: initial; text-decoration-style: initial; text-decoration-color: initial; float: none; display: inline !important;&quot;&gt;&lt;b style=&quot;&quot;&gt;&lt;font style=&quot;font-size: 30px;&quot;&gt;2&lt;/font&gt;&lt;/b&gt;&lt;/span&gt;" style="text;whiteSpace=wrap;html=1;fontColor=#FF3333;" vertex="1" parent="1">
          <mxGeometry x="640" y="445" width="30" height="50" as="geometry" />
        </mxCell>
        <mxCell id="b_11IC9qF9NP8ymyOty5-25" value="&lt;span style=&quot;font-family: Helvetica; font-style: normal; font-variant-ligatures: normal; font-variant-caps: normal; letter-spacing: normal; orphans: 2; text-align: center; text-indent: 0px; text-transform: none; widows: 2; word-spacing: 0px; -webkit-text-stroke-width: 0px; background-color: rgb(255, 255, 255); text-decoration-thickness: initial; text-decoration-style: initial; text-decoration-color: initial; float: none; display: inline !important;&quot;&gt;&lt;b style=&quot;&quot;&gt;&lt;font style=&quot;font-size: 30px;&quot;&gt;3&lt;/font&gt;&lt;/b&gt;&lt;/span&gt;" style="text;whiteSpace=wrap;html=1;fontColor=#FF3333;" vertex="1" parent="1">
          <mxGeometry x="260" y="545" width="30" height="50" as="geometry" />
        </mxCell>
        <mxCell id="b_11IC9qF9NP8ymyOty5-26" value="&lt;span style=&quot;font-family: Helvetica; font-style: normal; font-variant-ligatures: normal; font-variant-caps: normal; letter-spacing: normal; orphans: 2; text-align: center; text-indent: 0px; text-transform: none; widows: 2; word-spacing: 0px; -webkit-text-stroke-width: 0px; background-color: rgb(255, 255, 255); text-decoration-thickness: initial; text-decoration-style: initial; text-decoration-color: initial; float: none; display: inline !important;&quot;&gt;&lt;b style=&quot;&quot;&gt;&lt;font style=&quot;font-size: 30px;&quot;&gt;4&lt;/font&gt;&lt;/b&gt;&lt;/span&gt;" style="text;whiteSpace=wrap;html=1;fontColor=#FF3333;" vertex="1" parent="1">
          <mxGeometry x="425" y="20" width="30" height="50" as="geometry" />
        </mxCell>
      </root>
    </mxGraphModel>
  </diagram>
</mxfile>
